# xmcd
#
# Track frame offsets:
#	150
#	14058
#	30575
#	45447
#	62423
#	76713
#	92618
#	107642
#	126084
#	141769
#	153000
#
# Disc length: 2301 seconds
#
# Revision: 1
# Processed by: cddbd v1.5.2PL0 Copyright (c) Steve Scherf et al.
# Submitted via: audiograbber 1.83.01
#
DISCID=7908fb0b
DTITLE=Hank Sasaki - Tennesee and you
DYEAR=1900
DGENRE=Country
TTITLE0=Cowboy from Japan
TTITLE1=My old Kentucky
TTITLE2=Lonely memories
TTITLE3=Whiskey train
TTITLE4=Tennesee moon
TTITLE5=Come with me
TTITLE6=Was it just a game
TTITLE7=Tennesee and you
TTITLE8=Deep dark river
TTITLE9=I thank god for country music
TTITLE10=Why me lord
EXTD=
EXTT0=
EXTT1=
EXTT2=
EXTT3=
EXTT4=
EXTT5=
EXTT6=
EXTT7=
EXTT8=
EXTT9=
EXTT10=
PLAYORDER=
